<?xml version="1.0" encoding="utf-8"?>
<!-- Generator: Adobe Illustrator 23.0.2, SVG Export Plug-In . SVG Version: 6.00 Build 0)  -->
<svg version="1.1" id="Layer_1" xmlns="http://www.w3.org/2000/svg" xmlns:xlink="http://www.w3.org/1999/xlink" x="0px" y="0px"
	 viewBox="0 0 1920 1080" style="enable-background:new 0 0 1920 1080;" xml:space="preserve">
<style type="text/css">
	.st0{fill:#FFFFFF;}
</style>
<g>
	<g>
		<g>
			<g>
				<path d="M599.7,422.5c0.3-1.8,0.6-3.5,0.8-5.3c1.7-24.2,3.4-48.4,5.1-72.7c0.2-2.6,1-3.9,3.7-4c4.2-0.2,8.4-0.7,13.2-1.1
					c0,2.1,0,3.8,0,5.6c0,23,0,46,0,68.9c0,6,1.6,8.6,7.3,9.9c3.9,0.9,8.2,1.2,12.1,0.5c6.4-1.2,9.2-5.5,9.2-12
					c0-22.8,0-45.6,0-68.4c0-1.8,0-3.5,0-5.7c6.1,0,11.8,0,18.3,0c0,2.1,0,4.1,0,6.2c0,22.6,0.2,45.3-0.1,67.9
					c-0.1,7.2,2.5,10,8.9,12.3c5.2,1.9,10.7,1.5,15.9-0.3c4.9-1.8,6.3-3.9,6.3-9.3c0-23.3,0-46.6,0-69.9c0-1.8,0-3.6,0-5.9
					c5.5-0.3,10.2,1.4,15.2,2.7c0.2,1.3,0.4,2.6,0.4,3.9c0.7,29.4,1.3,58.7,1.9,88.1c0.1,4.1-0.1,8.2-0.6,12.3
					c-1.4,10.7-6.8,19.1-15.4,25.3c-5.3,3.8-11.1,7-16.8,10.2c-13,7.3-13.8,8.3-13.2,23.2c0.9,23,2.4,45.9,3.2,68.8
					c1.3,37.5,2.4,75.1,3.1,112.7c0.2,13.6-0.5,27.2-3.9,40.6c-0.3,1.3-0.7,2.5-1.1,3.8c-3.3,9.3-11.7,13.1-20.9,9.5
					c-4-1.6-6-4.9-7.4-8.7c-3.4-9.2-4.1-18.9-4.8-28.5c-1.8-27.4-0.4-54.8,0.6-82.2c0.8-23,2.1-45.9,3.1-68.9
					c0.8-17.5,1.3-35.1,2.4-52.6c0.4-6.6-2.2-11-7.6-14.2c-4.9-2.9-10-5.7-14.9-8.6c-7.8-4.7-15.2-10.1-19.2-18.6
					c-2.2-4.7-3.2-9.9-4.7-14.9C599.7,436.3,599.7,429.4,599.7,422.5z"/>
			</g>
			<g>
				<g>
					<path d="M1318,338.1c-9.1-0.4-16.4,2.6-23,7.5c-9.5,7-15.8,16.6-20.9,27c-8.8,18-13.7,37.2-17.4,56.7
						c-6.1,32.7-8.5,65.7-8.8,98.9c-0.2,16.6,5.3,31.5,13.3,45.8c5.2,9.3,10.4,18.6,15.1,28.2c4.2,8.8,4.6,18.2,1.5,27.4
						c-6.4,18.6-6.8,37.7-6,56.9c0.6,13.1,0.8,26.3,4.3,39c0.4,1.6,0.9,3.1,1.5,4.7c2.5,6.8,6.3,11.8,14.5,11.8
						c10.4,0,14.7-2.4,18.7-11.1c4.1-9,5.6-18.6,5.9-28.3c0.8-33.1,1.3-66.3,1.4-99.4c0.2-86.2,0.1-172.3,0.1-258.5
						C1318,342.6,1318,340.5,1318,338.1z"/>
				</g>
			</g>
		</g>
		<g>
			<path d="M976.6,281.8c-144.7-0.3-259.5,115.7-259,259.8c0.5,139,113.5,258.6,262.3,256.5c139.3-1.9,253.3-114.5,254.1-258
				C1233.8,398.1,1120.5,282.1,976.6,281.8z"/>
		</g>
		<g>
			<path class="st0" d="M975.3,771.2c-61.8,0-119.8-24.1-163.5-67.7c-43.7-43.7-67.7-101.7-67.7-163.5s24.1-119.8,67.7-163.5
				c43.7-43.7,101.7-67.7,163.5-67.7s119.8,24.1,163.5,67.7c43.7,43.7,67.7,101.7,67.7,163.5s-24.1,119.8-67.7,163.5
				C1095.2,747.2,1037.1,771.2,975.3,771.2z M975.3,314.8c-124.2,0-225.2,101-225.2,225.2c0,124.2,101,225.2,225.2,225.2
				c124.2,0,225.2-101,225.2-225.2C1200.5,415.8,1099.5,314.8,975.3,314.8z"/>
		</g>
	</g>
</g>
</svg>
